<?xml version="1.0" encoding="UTF-8" standalone="no"?>
<svg width="71px" height="70px" viewBox="0 0 71 70" version="1.1" xmlns="http://www.w3.org/2000/svg" xmlns:xlink="http://www.w3.org/1999/xlink" xmlns:sketch="http://www.bohemiancoding.com/sketch/ns">
    <!-- Generator: Sketch 3.0.4 (8054) - http://www.bohemiancoding.com/sketch -->
    <title>AirQulity</title>
    <desc>Created with Sketch.</desc>
    <defs></defs>
    <g id="Page-25" stroke="none" stroke-width="1" fill="none" fill-rule="evenodd" sketch:type="MSPage">
        <g id="Portrait-10" sketch:type="MSArtboardGroup" transform="translate(-91.000000, -768.000000)">
            <g id="AirQuality" sketch:type="MSLayerGroup" transform="translate(92.000000, 768.000000)">
                <ellipse id="bg_Circle" fill-opacity="0" fill="#D0011B" sketch:type="MSShapeGroup" cx="34.8578741" cy="34.9836262" rx="34.9702336" ry="34.9836262"></ellipse>
                <path d="M27.119419,38.0871089 C32.7557415,38.0871089 37.3248836,33.5098684 37.3248836,27.8635562 C37.3248836,22.2172439 32.7557415,17.6400034 27.119419,17.6400034 C21.4830965,17.6400034 16.9139543,22.2172439 16.9139543,27.8635562 C16.9139543,33.5098684 21.4830965,38.0871089 27.119419,38.0871089 Z M34.4090366,54.1526917 C37.6297923,54.1526917 40.2407307,51.5371257 40.2407307,48.3106616 C40.2407307,45.0841974 37.6297923,42.4686315 34.4090366,42.4686315 C31.1882809,42.4686315 28.5773425,45.0841974 28.5773425,48.3106616 C28.5773425,51.5371257 31.1882809,54.1526917 34.4090366,54.1526917 Z M46.0724247,43.929139 C50.0983694,43.929139 53.3620423,40.6596815 53.3620423,36.6266013 C53.3620423,32.5935212 50.0983694,29.3240637 46.0724247,29.3240637 C42.0464801,29.3240637 38.7828071,32.5935212 38.7828071,36.6266013 C38.7828071,40.6596815 42.0464801,43.929139 46.0724247,43.929139 Z" id="Bubbles" stroke="#FFFFFF" stroke-width="2" sketch:type="MSShapeGroup"></path>
            </g>
        </g>
    </g>
</svg>